<mxfile host="app.diagrams.net" modified="2023-08-27T03:05:08.603Z" agent="Mozilla/5.0 (Windows NT 10.0; Win64; x64) AppleWebKit/537.36 (KHTML, like Gecko) Chrome/116.0.0.0 Safari/537.36" etag="FJeZQKJdxZa6oSbndlcL" version="21.6.9" type="device">
  <diagram id="C5RBs43oDa-KdzZeNtuy" name="ClassDiagram">
    <mxGraphModel dx="1050" dy="581" grid="1" gridSize="10" guides="1" tooltips="1" connect="1" arrows="1" fold="1" page="1" pageScale="1" pageWidth="827" pageHeight="1169" math="0" shadow="0">
      <root>
        <mxCell id="WIyWlLk6GJQsqaUBKTNV-0" />
        <mxCell id="WIyWlLk6GJQsqaUBKTNV-1" parent="WIyWlLk6GJQsqaUBKTNV-0" />
        <mxCell id="s9KCGZ6K6-TVDeoNSBFZ-1" value="User Details" style="swimlane;fontStyle=1;align=center;verticalAlign=top;childLayout=stackLayout;horizontal=1;startSize=26;horizontalStack=0;resizeParent=1;resizeParentMax=0;resizeLast=0;collapsible=1;marginBottom=0;whiteSpace=wrap;html=1;fontSize=14;labelBackgroundColor=none;fillColor=#F2CC8F;strokeColor=#E07A5F;fontColor=#393C56;" parent="WIyWlLk6GJQsqaUBKTNV-1" vertex="1">
          <mxGeometry x="310" y="35" width="160" height="240" as="geometry" />
        </mxCell>
        <mxCell id="s9KCGZ6K6-TVDeoNSBFZ-2" value="+id:int&lt;br style=&quot;font-size: 14px;&quot;&gt;+user_id:int&lt;br style=&quot;font-size: 14px;&quot;&gt;+first_name: string&lt;br style=&quot;font-size: 14px;&quot;&gt;+last_name:string&lt;br style=&quot;font-size: 14px;&quot;&gt;+phone:float&lt;br style=&quot;font-size: 14px;&quot;&gt;+address1:string&lt;br&gt;+address2:string" style="text;strokeColor=none;fillColor=none;align=left;verticalAlign=top;spacingLeft=4;spacingRight=4;overflow=hidden;rotatable=0;points=[[0,0.5],[1,0.5]];portConstraint=eastwest;whiteSpace=wrap;html=1;fontSize=14;labelBackgroundColor=none;fontColor=#393C56;" parent="s9KCGZ6K6-TVDeoNSBFZ-1" vertex="1">
          <mxGeometry y="26" width="160" height="124" as="geometry" />
        </mxCell>
        <mxCell id="s9KCGZ6K6-TVDeoNSBFZ-3" value="" style="line;strokeWidth=1;fillColor=none;align=left;verticalAlign=middle;spacingTop=-1;spacingLeft=3;spacingRight=3;rotatable=0;labelPosition=right;points=[];portConstraint=eastwest;strokeColor=#E07A5F;fontSize=14;labelBackgroundColor=none;fontColor=#393C56;" parent="s9KCGZ6K6-TVDeoNSBFZ-1" vertex="1">
          <mxGeometry y="150" width="160" height="8" as="geometry" />
        </mxCell>
        <mxCell id="s9KCGZ6K6-TVDeoNSBFZ-4" value="+ getUserID()&lt;br&gt;+ add()&lt;br&gt;+ update()&lt;br&gt;+ delete()" style="text;strokeColor=none;fillColor=none;align=left;verticalAlign=top;spacingLeft=4;spacingRight=4;overflow=hidden;rotatable=0;points=[[0,0.5],[1,0.5]];portConstraint=eastwest;whiteSpace=wrap;html=1;fontSize=14;labelBackgroundColor=none;fontColor=#393C56;" parent="s9KCGZ6K6-TVDeoNSBFZ-1" vertex="1">
          <mxGeometry y="158" width="160" height="82" as="geometry" />
        </mxCell>
        <mxCell id="s9KCGZ6K6-TVDeoNSBFZ-5" value="Orders" style="swimlane;fontStyle=1;align=center;verticalAlign=top;childLayout=stackLayout;horizontal=1;startSize=26;horizontalStack=0;resizeParent=1;resizeParentMax=0;resizeLast=0;collapsible=1;marginBottom=0;whiteSpace=wrap;html=1;fontSize=14;labelBackgroundColor=none;fillColor=#F2CC8F;strokeColor=#E07A5F;fontColor=#393C56;" parent="WIyWlLk6GJQsqaUBKTNV-1" vertex="1">
          <mxGeometry x="720" y="700" width="160" height="290" as="geometry">
            <mxRectangle x="350" y="36" width="90" height="30" as="alternateBounds" />
          </mxGeometry>
        </mxCell>
        <mxCell id="s9KCGZ6K6-TVDeoNSBFZ-6" value="+id:int&lt;br style=&quot;font-size: 14px;&quot;&gt;+user_id:int&lt;br style=&quot;font-size: 14px;&quot;&gt;+status:string&lt;br style=&quot;font-size: 14px;&quot;&gt;+total_amount:int&lt;br style=&quot;font-size: 14px;&quot;&gt;+confirmation_time:date&lt;br style=&quot;font-size: 14px;&quot;&gt;+payment_method:float&lt;br style=&quot;font-size: 14px;&quot;&gt;+note:string" style="text;strokeColor=none;fillColor=none;align=left;verticalAlign=top;spacingLeft=4;spacingRight=4;overflow=hidden;rotatable=0;points=[[0,0.5],[1,0.5]];portConstraint=eastwest;whiteSpace=wrap;html=1;fontSize=14;labelBackgroundColor=none;fontColor=#393C56;" parent="s9KCGZ6K6-TVDeoNSBFZ-5" vertex="1">
          <mxGeometry y="26" width="160" height="124" as="geometry" />
        </mxCell>
        <mxCell id="s9KCGZ6K6-TVDeoNSBFZ-7" value="" style="line;strokeWidth=1;fillColor=none;align=left;verticalAlign=middle;spacingTop=-1;spacingLeft=3;spacingRight=3;rotatable=0;labelPosition=right;points=[];portConstraint=eastwest;strokeColor=#E07A5F;fontSize=14;labelBackgroundColor=none;fontColor=#393C56;" parent="s9KCGZ6K6-TVDeoNSBFZ-5" vertex="1">
          <mxGeometry y="150" width="160" height="8" as="geometry" />
        </mxCell>
        <mxCell id="s9KCGZ6K6-TVDeoNSBFZ-8" value="+ getUserID()&lt;br&gt;+ add()&lt;br style=&quot;border-color: var(--border-color);&quot;&gt;+ update()&lt;br style=&quot;border-color: var(--border-color);&quot;&gt;+ delete()&lt;br style=&quot;border-color: var(--border-color);&quot;&gt;+ search()&lt;br style=&quot;border-color: var(--border-color);&quot;&gt;+ viewList()&lt;br style=&quot;border-color: var(--border-color);&quot;&gt;+ viewDetails" style="text;strokeColor=none;fillColor=none;align=left;verticalAlign=top;spacingLeft=4;spacingRight=4;overflow=hidden;rotatable=0;points=[[0,0.5],[1,0.5]];portConstraint=eastwest;whiteSpace=wrap;html=1;fontSize=14;labelBackgroundColor=none;fontColor=#393C56;" parent="s9KCGZ6K6-TVDeoNSBFZ-5" vertex="1">
          <mxGeometry y="158" width="160" height="132" as="geometry" />
        </mxCell>
        <mxCell id="s9KCGZ6K6-TVDeoNSBFZ-9" value="Order Detail" style="swimlane;fontStyle=1;align=center;verticalAlign=top;childLayout=stackLayout;horizontal=1;startSize=26;horizontalStack=0;resizeParent=1;resizeParentMax=0;resizeLast=0;collapsible=1;marginBottom=0;whiteSpace=wrap;html=1;fontSize=14;labelBackgroundColor=none;fillColor=#F2CC8F;strokeColor=#E07A5F;fontColor=#393C56;" parent="WIyWlLk6GJQsqaUBKTNV-1" vertex="1">
          <mxGeometry x="800" y="380" width="160" height="190" as="geometry" />
        </mxCell>
        <mxCell id="s9KCGZ6K6-TVDeoNSBFZ-10" value="+id:int&lt;br style=&quot;font-size: 14px;&quot;&gt;+oder_id:int&lt;br style=&quot;font-size: 14px;&quot;&gt;+product_id:int&lt;br style=&quot;font-size: 14px;&quot;&gt;+quantity:int&lt;br style=&quot;font-size: 14px;&quot;&gt;+sub_total:int" style="text;strokeColor=none;fillColor=none;align=left;verticalAlign=top;spacingLeft=4;spacingRight=4;overflow=hidden;rotatable=0;points=[[0,0.5],[1,0.5]];portConstraint=eastwest;whiteSpace=wrap;html=1;fontSize=14;labelBackgroundColor=none;fontColor=#393C56;" parent="s9KCGZ6K6-TVDeoNSBFZ-9" vertex="1">
          <mxGeometry y="26" width="160" height="94" as="geometry" />
        </mxCell>
        <mxCell id="s9KCGZ6K6-TVDeoNSBFZ-11" value="" style="line;strokeWidth=1;fillColor=none;align=left;verticalAlign=middle;spacingTop=-1;spacingLeft=3;spacingRight=3;rotatable=0;labelPosition=right;points=[];portConstraint=eastwest;strokeColor=#E07A5F;fontSize=14;labelBackgroundColor=none;fontColor=#393C56;" parent="s9KCGZ6K6-TVDeoNSBFZ-9" vertex="1">
          <mxGeometry y="120" width="160" height="8" as="geometry" />
        </mxCell>
        <mxCell id="s9KCGZ6K6-TVDeoNSBFZ-12" value="+ getOrderID()&lt;br&gt;+ getProductID()&lt;br&gt;+ update()" style="text;strokeColor=none;fillColor=none;align=left;verticalAlign=top;spacingLeft=4;spacingRight=4;overflow=hidden;rotatable=0;points=[[0,0.5],[1,0.5]];portConstraint=eastwest;whiteSpace=wrap;html=1;fontSize=14;labelBackgroundColor=none;fontColor=#393C56;" parent="s9KCGZ6K6-TVDeoNSBFZ-9" vertex="1">
          <mxGeometry y="128" width="160" height="62" as="geometry" />
        </mxCell>
        <mxCell id="s9KCGZ6K6-TVDeoNSBFZ-13" value="Blog" style="swimlane;fontStyle=1;align=center;verticalAlign=top;childLayout=stackLayout;horizontal=1;startSize=26;horizontalStack=0;resizeParent=1;resizeParentMax=0;resizeLast=0;collapsible=1;marginBottom=0;whiteSpace=wrap;html=1;fontSize=14;labelBackgroundColor=none;fillColor=#F2CC8F;strokeColor=#E07A5F;fontColor=#393C56;" parent="WIyWlLk6GJQsqaUBKTNV-1" vertex="1">
          <mxGeometry x="50" y="344" width="160" height="300" as="geometry" />
        </mxCell>
        <mxCell id="s9KCGZ6K6-TVDeoNSBFZ-14" value="+id:int&lt;br style=&quot;font-size: 14px;&quot;&gt;+user_id:int&lt;br style=&quot;font-size: 14px;&quot;&gt;+category_blog_id:int&lt;br style=&quot;font-size: 14px;&quot;&gt;+title:string&lt;br style=&quot;font-size: 14px;&quot;&gt;+image: string&lt;br style=&quot;font-size: 14px;&quot;&gt;+description:string&lt;br style=&quot;font-size: 14px;&quot;&gt;+content:string" style="text;strokeColor=none;fillColor=none;align=left;verticalAlign=top;spacingLeft=4;spacingRight=4;overflow=hidden;rotatable=0;points=[[0,0.5],[1,0.5]];portConstraint=eastwest;whiteSpace=wrap;html=1;fontSize=14;labelBackgroundColor=none;fontColor=#393C56;" parent="s9KCGZ6K6-TVDeoNSBFZ-13" vertex="1">
          <mxGeometry y="26" width="160" height="124" as="geometry" />
        </mxCell>
        <mxCell id="s9KCGZ6K6-TVDeoNSBFZ-15" value="" style="line;strokeWidth=1;fillColor=none;align=left;verticalAlign=middle;spacingTop=-1;spacingLeft=3;spacingRight=3;rotatable=0;labelPosition=right;points=[];portConstraint=eastwest;strokeColor=#E07A5F;fontSize=14;labelBackgroundColor=none;fontColor=#393C56;" parent="s9KCGZ6K6-TVDeoNSBFZ-13" vertex="1">
          <mxGeometry y="150" width="160" height="8" as="geometry" />
        </mxCell>
        <mxCell id="s9KCGZ6K6-TVDeoNSBFZ-16" value="+ getUserID()&lt;br style=&quot;border-color: var(--border-color);&quot;&gt;+ getBlogCategory()&lt;br&gt;+ add()&lt;br style=&quot;border-color: var(--border-color);&quot;&gt;+ update()&lt;br style=&quot;border-color: var(--border-color);&quot;&gt;+ delete()&lt;br style=&quot;border-color: var(--border-color);&quot;&gt;+ search()&lt;br style=&quot;border-color: var(--border-color);&quot;&gt;+ viewList()&lt;br style=&quot;border-color: var(--border-color);&quot;&gt;+ viewDetails()" style="text;strokeColor=none;fillColor=none;align=left;verticalAlign=top;spacingLeft=4;spacingRight=4;overflow=hidden;rotatable=0;points=[[0,0.5],[1,0.5]];portConstraint=eastwest;whiteSpace=wrap;html=1;fontSize=14;labelBackgroundColor=none;fontColor=#393C56;" parent="s9KCGZ6K6-TVDeoNSBFZ-13" vertex="1">
          <mxGeometry y="158" width="160" height="142" as="geometry" />
        </mxCell>
        <mxCell id="s9KCGZ6K6-TVDeoNSBFZ-17" value="Category Blog" style="swimlane;fontStyle=1;align=center;verticalAlign=top;childLayout=stackLayout;horizontal=1;startSize=26;horizontalStack=0;resizeParent=1;resizeParentMax=0;resizeLast=0;collapsible=1;marginBottom=0;whiteSpace=wrap;html=1;fontSize=14;labelBackgroundColor=none;fillColor=#F2CC8F;strokeColor=#E07A5F;fontColor=#393C56;" parent="WIyWlLk6GJQsqaUBKTNV-1" vertex="1">
          <mxGeometry x="50" y="40" width="160" height="240" as="geometry" />
        </mxCell>
        <mxCell id="s9KCGZ6K6-TVDeoNSBFZ-18" value="+id: int&lt;br style=&quot;font-size: 14px;&quot;&gt;+image:&lt;br style=&quot;font-size: 14px;&quot;&gt;+name:string&lt;br style=&quot;font-size: 14px;&quot;&gt;+description:string&lt;br style=&quot;font-size: 14px;&quot;&gt;+status:string" style="text;strokeColor=none;fillColor=none;align=left;verticalAlign=top;spacingLeft=4;spacingRight=4;overflow=hidden;rotatable=0;points=[[0,0.5],[1,0.5]];portConstraint=eastwest;whiteSpace=wrap;html=1;fontSize=14;labelBackgroundColor=none;fontColor=#393C56;" parent="s9KCGZ6K6-TVDeoNSBFZ-17" vertex="1">
          <mxGeometry y="26" width="160" height="94" as="geometry" />
        </mxCell>
        <mxCell id="s9KCGZ6K6-TVDeoNSBFZ-19" value="" style="line;strokeWidth=1;fillColor=none;align=left;verticalAlign=middle;spacingTop=-1;spacingLeft=3;spacingRight=3;rotatable=0;labelPosition=right;points=[];portConstraint=eastwest;strokeColor=#E07A5F;fontSize=14;labelBackgroundColor=none;fontColor=#393C56;" parent="s9KCGZ6K6-TVDeoNSBFZ-17" vertex="1">
          <mxGeometry y="120" width="160" height="8" as="geometry" />
        </mxCell>
        <mxCell id="s9KCGZ6K6-TVDeoNSBFZ-20" value="+ add()&lt;br style=&quot;border-color: var(--border-color);&quot;&gt;+ update()&lt;br style=&quot;border-color: var(--border-color);&quot;&gt;+ delete()&lt;br style=&quot;border-color: var(--border-color);&quot;&gt;+ search()&lt;br style=&quot;border-color: var(--border-color);&quot;&gt;+ viewList()&lt;br style=&quot;border-color: var(--border-color);&quot;&gt;+ viewDetails()&lt;br&gt;" style="text;strokeColor=none;fillColor=none;align=left;verticalAlign=top;spacingLeft=4;spacingRight=4;overflow=hidden;rotatable=0;points=[[0,0.5],[1,0.5]];portConstraint=eastwest;whiteSpace=wrap;html=1;fontSize=14;labelBackgroundColor=none;fontColor=#393C56;" parent="s9KCGZ6K6-TVDeoNSBFZ-17" vertex="1">
          <mxGeometry y="128" width="160" height="112" as="geometry" />
        </mxCell>
        <mxCell id="s9KCGZ6K6-TVDeoNSBFZ-21" value="Cart" style="swimlane;fontStyle=1;align=center;verticalAlign=top;childLayout=stackLayout;horizontal=1;startSize=26;horizontalStack=0;resizeParent=1;resizeParentMax=0;resizeLast=0;collapsible=1;marginBottom=0;whiteSpace=wrap;html=1;fontSize=14;labelBackgroundColor=none;fillColor=#F2CC8F;strokeColor=#E07A5F;fontColor=#393C56;" parent="WIyWlLk6GJQsqaUBKTNV-1" vertex="1">
          <mxGeometry x="560" y="35" width="160" height="190" as="geometry" />
        </mxCell>
        <mxCell id="s9KCGZ6K6-TVDeoNSBFZ-22" value="+id:int&lt;br style=&quot;font-size: 14px;&quot;&gt;+product_id:int&lt;br style=&quot;font-size: 14px;&quot;&gt;+user_id:int&lt;br style=&quot;font-size: 14px;&quot;&gt;+quantity:int&lt;br style=&quot;font-size: 14px;&quot;&gt;+sub_total: double" style="text;strokeColor=none;fillColor=none;align=left;verticalAlign=top;spacingLeft=4;spacingRight=4;overflow=hidden;rotatable=0;points=[[0,0.5],[1,0.5]];portConstraint=eastwest;whiteSpace=wrap;html=1;fontSize=14;labelBackgroundColor=none;fontColor=#393C56;" parent="s9KCGZ6K6-TVDeoNSBFZ-21" vertex="1">
          <mxGeometry y="26" width="160" height="94" as="geometry" />
        </mxCell>
        <mxCell id="s9KCGZ6K6-TVDeoNSBFZ-23" value="" style="line;strokeWidth=1;fillColor=none;align=left;verticalAlign=middle;spacingTop=-1;spacingLeft=3;spacingRight=3;rotatable=0;labelPosition=right;points=[];portConstraint=eastwest;strokeColor=#E07A5F;fontSize=14;labelBackgroundColor=none;fontColor=#393C56;" parent="s9KCGZ6K6-TVDeoNSBFZ-21" vertex="1">
          <mxGeometry y="120" width="160" height="8" as="geometry" />
        </mxCell>
        <mxCell id="s9KCGZ6K6-TVDeoNSBFZ-24" value="+ getUserID()&lt;br&gt;+ getProductID()&lt;br&gt;+ update()" style="text;strokeColor=none;fillColor=none;align=left;verticalAlign=top;spacingLeft=4;spacingRight=4;overflow=hidden;rotatable=0;points=[[0,0.5],[1,0.5]];portConstraint=eastwest;whiteSpace=wrap;html=1;fontSize=14;labelBackgroundColor=none;fontColor=#393C56;" parent="s9KCGZ6K6-TVDeoNSBFZ-21" vertex="1">
          <mxGeometry y="128" width="160" height="62" as="geometry" />
        </mxCell>
        <mxCell id="s9KCGZ6K6-TVDeoNSBFZ-25" value="Category Product" style="swimlane;fontStyle=1;align=center;verticalAlign=top;childLayout=stackLayout;horizontal=1;startSize=26;horizontalStack=0;resizeParent=1;resizeParentMax=0;resizeLast=0;collapsible=1;marginBottom=0;whiteSpace=wrap;html=1;fontSize=14;labelBackgroundColor=none;fillColor=#F2CC8F;strokeColor=#E07A5F;fontColor=#393C56;" parent="WIyWlLk6GJQsqaUBKTNV-1" vertex="1">
          <mxGeometry x="800" y="86" width="160" height="240" as="geometry" />
        </mxCell>
        <mxCell id="s9KCGZ6K6-TVDeoNSBFZ-26" value="+id: int&lt;br style=&quot;font-size: 14px;&quot;&gt;+image: string&lt;br style=&quot;font-size: 14px;&quot;&gt;+name:string&lt;br style=&quot;font-size: 14px;&quot;&gt;+description:string&lt;br style=&quot;font-size: 14px;&quot;&gt;+status:string" style="text;strokeColor=none;fillColor=none;align=left;verticalAlign=top;spacingLeft=4;spacingRight=4;overflow=hidden;rotatable=0;points=[[0,0.5],[1,0.5]];portConstraint=eastwest;whiteSpace=wrap;html=1;fontSize=14;labelBackgroundColor=none;fontColor=#393C56;" parent="s9KCGZ6K6-TVDeoNSBFZ-25" vertex="1">
          <mxGeometry y="26" width="160" height="94" as="geometry" />
        </mxCell>
        <mxCell id="s9KCGZ6K6-TVDeoNSBFZ-27" value="" style="line;strokeWidth=1;fillColor=none;align=left;verticalAlign=middle;spacingTop=-1;spacingLeft=3;spacingRight=3;rotatable=0;labelPosition=right;points=[];portConstraint=eastwest;strokeColor=#E07A5F;fontSize=14;labelBackgroundColor=none;fontColor=#393C56;" parent="s9KCGZ6K6-TVDeoNSBFZ-25" vertex="1">
          <mxGeometry y="120" width="160" height="8" as="geometry" />
        </mxCell>
        <mxCell id="s9KCGZ6K6-TVDeoNSBFZ-28" value="+ add()&lt;br&gt;+ update()&lt;br&gt;+ delete()&lt;br&gt;+ search()&lt;br&gt;+ viewList()&lt;br&gt;+ viewDetails" style="text;strokeColor=none;fillColor=none;align=left;verticalAlign=top;spacingLeft=4;spacingRight=4;overflow=hidden;rotatable=0;points=[[0,0.5],[1,0.5]];portConstraint=eastwest;whiteSpace=wrap;html=1;fontSize=14;labelBackgroundColor=none;fontColor=#393C56;" parent="s9KCGZ6K6-TVDeoNSBFZ-25" vertex="1">
          <mxGeometry y="128" width="160" height="112" as="geometry" />
        </mxCell>
        <mxCell id="s9KCGZ6K6-TVDeoNSBFZ-29" value="Brand" style="swimlane;fontStyle=1;align=center;verticalAlign=top;childLayout=stackLayout;horizontal=1;startSize=26;horizontalStack=0;resizeParent=1;resizeParentMax=0;resizeLast=0;collapsible=1;marginBottom=0;whiteSpace=wrap;html=1;fontSize=14;labelBackgroundColor=none;fillColor=#F2CC8F;strokeColor=#E07A5F;fontColor=#393C56;" parent="WIyWlLk6GJQsqaUBKTNV-1" vertex="1">
          <mxGeometry x="150" y="700" width="160" height="290" as="geometry" />
        </mxCell>
        <mxCell id="s9KCGZ6K6-TVDeoNSBFZ-30" value="+id: int&lt;br style=&quot;font-size: 14px;&quot;&gt;+image:&lt;br style=&quot;font-size: 14px;&quot;&gt;+name:string&lt;br style=&quot;font-size: 14px;&quot;&gt;+status:string&lt;br style=&quot;font-size: 14px;&quot;&gt;+status:string&lt;br style=&quot;font-size: 14px;&quot;&gt;+address:string&lt;br style=&quot;font-size: 14px;&quot;&gt;+hotline:string&lt;br style=&quot;font-size: 14px;&quot;&gt;+description:string" style="text;strokeColor=none;fillColor=none;align=left;verticalAlign=top;spacingLeft=4;spacingRight=4;overflow=hidden;rotatable=0;points=[[0,0.5],[1,0.5]];portConstraint=eastwest;whiteSpace=wrap;html=1;fontSize=14;labelBackgroundColor=none;fontColor=#393C56;" parent="s9KCGZ6K6-TVDeoNSBFZ-29" vertex="1">
          <mxGeometry y="26" width="160" height="144" as="geometry" />
        </mxCell>
        <mxCell id="s9KCGZ6K6-TVDeoNSBFZ-31" value="" style="line;strokeWidth=1;fillColor=none;align=left;verticalAlign=middle;spacingTop=-1;spacingLeft=3;spacingRight=3;rotatable=0;labelPosition=right;points=[];portConstraint=eastwest;strokeColor=#E07A5F;fontSize=14;labelBackgroundColor=none;fontColor=#393C56;" parent="s9KCGZ6K6-TVDeoNSBFZ-29" vertex="1">
          <mxGeometry y="170" width="160" height="8" as="geometry" />
        </mxCell>
        <mxCell id="s9KCGZ6K6-TVDeoNSBFZ-32" value="+ add()&lt;br style=&quot;border-color: var(--border-color);&quot;&gt;+ update()&lt;br style=&quot;border-color: var(--border-color);&quot;&gt;+ delete()&lt;br style=&quot;border-color: var(--border-color);&quot;&gt;+ search()&lt;br style=&quot;border-color: var(--border-color);&quot;&gt;+ viewList()&lt;br style=&quot;border-color: var(--border-color);&quot;&gt;+ viewDetail" style="text;strokeColor=none;fillColor=none;align=left;verticalAlign=top;spacingLeft=4;spacingRight=4;overflow=hidden;rotatable=0;points=[[0,0.5],[1,0.5]];portConstraint=eastwest;whiteSpace=wrap;html=1;fontSize=14;labelBackgroundColor=none;fontColor=#393C56;" parent="s9KCGZ6K6-TVDeoNSBFZ-29" vertex="1">
          <mxGeometry y="178" width="160" height="112" as="geometry" />
        </mxCell>
        <mxCell id="s9KCGZ6K6-TVDeoNSBFZ-33" value="Users" style="swimlane;fontStyle=1;align=center;verticalAlign=top;childLayout=stackLayout;horizontal=1;startSize=26;horizontalStack=0;resizeParent=1;resizeParentMax=0;resizeLast=0;collapsible=1;marginBottom=0;whiteSpace=wrap;html=1;fontSize=14;labelBackgroundColor=none;fillColor=#F2CC8F;strokeColor=#E07A5F;fontColor=#393C56;" parent="WIyWlLk6GJQsqaUBKTNV-1" vertex="1">
          <mxGeometry x="310" y="334" width="160" height="310" as="geometry">
            <mxRectangle x="350" y="36" width="90" height="30" as="alternateBounds" />
          </mxGeometry>
        </mxCell>
        <mxCell id="s9KCGZ6K6-TVDeoNSBFZ-34" value="+id: Int&lt;br style=&quot;border-color: var(--border-color);&quot;&gt;+image:string&lt;br style=&quot;border-color: var(--border-color);&quot;&gt;+email:string&lt;br style=&quot;border-color: var(--border-color);&quot;&gt;+name: string&lt;br style=&quot;border-color: var(--border-color);&quot;&gt;+phone: float&lt;br style=&quot;border-color: var(--border-color);&quot;&gt;+address: string&lt;br style=&quot;border-color: var(--border-color);&quot;&gt;+roles:int&lt;br style=&quot;border-color: var(--border-color);&quot;&gt;+password:string" style="text;strokeColor=none;fillColor=none;align=left;verticalAlign=top;spacingLeft=4;spacingRight=4;overflow=hidden;rotatable=0;points=[[0,0.5],[1,0.5]];portConstraint=eastwest;whiteSpace=wrap;html=1;fontSize=14;labelBackgroundColor=none;fontColor=#393C56;" parent="s9KCGZ6K6-TVDeoNSBFZ-33" vertex="1">
          <mxGeometry y="26" width="160" height="144" as="geometry" />
        </mxCell>
        <mxCell id="s9KCGZ6K6-TVDeoNSBFZ-35" value="" style="line;strokeWidth=1;fillColor=none;align=left;verticalAlign=middle;spacingTop=-1;spacingLeft=3;spacingRight=3;rotatable=0;labelPosition=right;points=[];portConstraint=eastwest;strokeColor=#E07A5F;fontSize=14;labelBackgroundColor=none;fontColor=#393C56;" parent="s9KCGZ6K6-TVDeoNSBFZ-33" vertex="1">
          <mxGeometry y="170" width="160" height="8" as="geometry" />
        </mxCell>
        <mxCell id="s9KCGZ6K6-TVDeoNSBFZ-36" value="+ login()&lt;br&gt;+ logout()&lt;br&gt;+ register()&lt;br&gt;+ update()&lt;br&gt;+ delete()&lt;br&gt;+ search()&lt;br&gt;+ list()" style="text;strokeColor=none;fillColor=none;align=left;verticalAlign=top;spacingLeft=4;spacingRight=4;overflow=hidden;rotatable=0;points=[[0,0.5],[1,0.5]];portConstraint=eastwest;whiteSpace=wrap;html=1;fontSize=14;labelBackgroundColor=none;fontColor=#393C56;" parent="s9KCGZ6K6-TVDeoNSBFZ-33" vertex="1">
          <mxGeometry y="178" width="160" height="132" as="geometry" />
        </mxCell>
        <mxCell id="s9KCGZ6K6-TVDeoNSBFZ-37" value="Products" style="swimlane;fontStyle=1;align=center;verticalAlign=top;childLayout=stackLayout;horizontal=1;startSize=26;horizontalStack=0;resizeParent=1;resizeParentMax=0;resizeLast=0;collapsible=1;marginBottom=0;whiteSpace=wrap;html=1;fontSize=14;labelBackgroundColor=none;fillColor=#F2CC8F;strokeColor=#E07A5F;fontColor=#393C56;" parent="WIyWlLk6GJQsqaUBKTNV-1" vertex="1">
          <mxGeometry x="560" y="300" width="160" height="320" as="geometry" />
        </mxCell>
        <mxCell id="s9KCGZ6K6-TVDeoNSBFZ-38" value="+id:int&lt;br style=&quot;font-size: 14px;&quot;&gt;+brand_id:int&lt;br style=&quot;font-size: 14px;&quot;&gt;+category_product_id:int&lt;br style=&quot;font-size: 14px;&quot;&gt;+name:string&lt;br style=&quot;font-size: 14px;&quot;&gt;+image: string&lt;br style=&quot;font-size: 14px;&quot;&gt;+description:string&lt;br&gt;+status: int&lt;br&gt;+ price: double" style="text;strokeColor=none;fillColor=none;align=left;verticalAlign=top;spacingLeft=4;spacingRight=4;overflow=hidden;rotatable=0;points=[[0,0.5],[1,0.5]];portConstraint=eastwest;whiteSpace=wrap;html=1;fontSize=14;labelBackgroundColor=none;fontColor=#393C56;" parent="s9KCGZ6K6-TVDeoNSBFZ-37" vertex="1">
          <mxGeometry y="26" width="160" height="144" as="geometry" />
        </mxCell>
        <mxCell id="s9KCGZ6K6-TVDeoNSBFZ-39" value="" style="line;strokeWidth=1;fillColor=none;align=left;verticalAlign=middle;spacingTop=-1;spacingLeft=3;spacingRight=3;rotatable=0;labelPosition=right;points=[];portConstraint=eastwest;strokeColor=#E07A5F;fontSize=14;labelBackgroundColor=none;fontColor=#393C56;" parent="s9KCGZ6K6-TVDeoNSBFZ-37" vertex="1">
          <mxGeometry y="170" width="160" height="8" as="geometry" />
        </mxCell>
        <mxCell id="s9KCGZ6K6-TVDeoNSBFZ-40" value="+ getUserID()&lt;br style=&quot;border-color: var(--border-color);&quot;&gt;+ getProductCategory()&lt;br style=&quot;border-color: var(--border-color);&quot;&gt;+ add()&lt;br style=&quot;border-color: var(--border-color);&quot;&gt;+ update()&lt;br style=&quot;border-color: var(--border-color);&quot;&gt;+ delete()&lt;br style=&quot;border-color: var(--border-color);&quot;&gt;+ search()&lt;br style=&quot;border-color: var(--border-color);&quot;&gt;+ viewList()&lt;br style=&quot;border-color: var(--border-color);&quot;&gt;+ viewDetails()" style="text;strokeColor=none;fillColor=none;align=left;verticalAlign=top;spacingLeft=4;spacingRight=4;overflow=hidden;rotatable=0;points=[[0,0.5],[1,0.5]];portConstraint=eastwest;whiteSpace=wrap;html=1;fontSize=14;labelBackgroundColor=none;fontColor=#393C56;" parent="s9KCGZ6K6-TVDeoNSBFZ-37" vertex="1">
          <mxGeometry y="178" width="160" height="142" as="geometry" />
        </mxCell>
        <mxCell id="s9KCGZ6K6-TVDeoNSBFZ-41" value="Reviews" style="swimlane;fontStyle=1;align=center;verticalAlign=top;childLayout=stackLayout;horizontal=1;startSize=26;horizontalStack=0;resizeParent=1;resizeParentMax=0;resizeLast=0;collapsible=1;marginBottom=0;whiteSpace=wrap;html=1;fontSize=14;labelBackgroundColor=none;fillColor=#F2CC8F;strokeColor=#E07A5F;fontColor=#393C56;" parent="WIyWlLk6GJQsqaUBKTNV-1" vertex="1">
          <mxGeometry x="460" y="750" width="160" height="240" as="geometry" />
        </mxCell>
        <mxCell id="s9KCGZ6K6-TVDeoNSBFZ-42" value="+id: int&lt;br style=&quot;font-size: 14px;&quot;&gt;+user_id: int&lt;br style=&quot;font-size: 14px;&quot;&gt;+product_id: int&lt;br style=&quot;font-size: 14px;&quot;&gt;+title:string&lt;br style=&quot;font-size: 14px;&quot;&gt;+content:string&lt;br style=&quot;font-size: 14px;&quot;&gt;+score:string" style="text;strokeColor=none;fillColor=none;align=left;verticalAlign=top;spacingLeft=4;spacingRight=4;overflow=hidden;rotatable=0;points=[[0,0.5],[1,0.5]];portConstraint=eastwest;whiteSpace=wrap;html=1;fontSize=14;labelBackgroundColor=none;fontColor=#393C56;" parent="s9KCGZ6K6-TVDeoNSBFZ-41" vertex="1">
          <mxGeometry y="26" width="160" height="114" as="geometry" />
        </mxCell>
        <mxCell id="s9KCGZ6K6-TVDeoNSBFZ-43" value="" style="line;strokeWidth=1;fillColor=none;align=left;verticalAlign=middle;spacingTop=-1;spacingLeft=3;spacingRight=3;rotatable=0;labelPosition=right;points=[];portConstraint=eastwest;strokeColor=#E07A5F;fontSize=14;labelBackgroundColor=none;fontColor=#393C56;" parent="s9KCGZ6K6-TVDeoNSBFZ-41" vertex="1">
          <mxGeometry y="140" width="160" height="8" as="geometry" />
        </mxCell>
        <mxCell id="s9KCGZ6K6-TVDeoNSBFZ-44" value="+ getUserID()&lt;br&gt;+ getProductID()&lt;br&gt;+ add()&lt;br&gt;+ list()&lt;br&gt;+ viewDetail()" style="text;strokeColor=none;fillColor=none;align=left;verticalAlign=top;spacingLeft=4;spacingRight=4;overflow=hidden;rotatable=0;points=[[0,0.5],[1,0.5]];portConstraint=eastwest;whiteSpace=wrap;html=1;fontSize=14;labelBackgroundColor=none;fontColor=#393C56;" parent="s9KCGZ6K6-TVDeoNSBFZ-41" vertex="1">
          <mxGeometry y="148" width="160" height="92" as="geometry" />
        </mxCell>
        <mxCell id="s9KCGZ6K6-TVDeoNSBFZ-45" value="" style="endArrow=none;html=1;rounded=0;exitX=0.5;exitY=0;exitDx=0;exitDy=0;" parent="WIyWlLk6GJQsqaUBKTNV-1" source="s9KCGZ6K6-TVDeoNSBFZ-33" target="s9KCGZ6K6-TVDeoNSBFZ-4" edge="1">
          <mxGeometry width="50" height="50" relative="1" as="geometry">
            <mxPoint x="560" y="530" as="sourcePoint" />
            <mxPoint x="610" y="480" as="targetPoint" />
          </mxGeometry>
        </mxCell>
        <mxCell id="s9KCGZ6K6-TVDeoNSBFZ-46" value="1" style="edgeLabel;html=1;align=center;verticalAlign=middle;resizable=0;points=[];fontSize=13;labelBackgroundColor=none;" parent="s9KCGZ6K6-TVDeoNSBFZ-45" vertex="1" connectable="0">
          <mxGeometry x="0.3924" relative="1" as="geometry">
            <mxPoint x="10" y="-15" as="offset" />
          </mxGeometry>
        </mxCell>
        <mxCell id="s9KCGZ6K6-TVDeoNSBFZ-47" value="1" style="edgeLabel;html=1;align=center;verticalAlign=middle;resizable=0;points=[];labelBackgroundColor=none;fontSize=13;" parent="s9KCGZ6K6-TVDeoNSBFZ-45" vertex="1" connectable="0">
          <mxGeometry x="-0.7801" relative="1" as="geometry">
            <mxPoint x="10" as="offset" />
          </mxGeometry>
        </mxCell>
        <mxCell id="s9KCGZ6K6-TVDeoNSBFZ-48" value="" style="endArrow=none;html=1;rounded=0;entryX=0;entryY=0.5;entryDx=0;entryDy=0;" parent="WIyWlLk6GJQsqaUBKTNV-1" source="s9KCGZ6K6-TVDeoNSBFZ-33" target="s9KCGZ6K6-TVDeoNSBFZ-24" edge="1">
          <mxGeometry width="50" height="50" relative="1" as="geometry">
            <mxPoint x="480" y="330" as="sourcePoint" />
            <mxPoint x="530" y="280" as="targetPoint" />
          </mxGeometry>
        </mxCell>
        <mxCell id="s9KCGZ6K6-TVDeoNSBFZ-49" value="&lt;font style=&quot;font-size: 13px;&quot;&gt;1...*&lt;/font&gt;" style="edgeLabel;html=1;align=center;verticalAlign=middle;resizable=0;points=[];labelBackgroundColor=none;" parent="s9KCGZ6K6-TVDeoNSBFZ-48" vertex="1" connectable="0">
          <mxGeometry x="0.8399" relative="1" as="geometry">
            <mxPoint x="-13" y="-10" as="offset" />
          </mxGeometry>
        </mxCell>
        <mxCell id="s9KCGZ6K6-TVDeoNSBFZ-50" value="&lt;font style=&quot;font-size: 13px;&quot;&gt;1&lt;/font&gt;" style="edgeLabel;html=1;align=center;verticalAlign=middle;resizable=0;points=[];labelBackgroundColor=none;" parent="s9KCGZ6K6-TVDeoNSBFZ-48" vertex="1" connectable="0">
          <mxGeometry x="-0.7968" relative="1" as="geometry">
            <mxPoint x="-9" y="-10" as="offset" />
          </mxGeometry>
        </mxCell>
        <mxCell id="s9KCGZ6K6-TVDeoNSBFZ-51" value="" style="endArrow=none;html=1;rounded=0;" parent="WIyWlLk6GJQsqaUBKTNV-1" source="s9KCGZ6K6-TVDeoNSBFZ-24" target="s9KCGZ6K6-TVDeoNSBFZ-37" edge="1">
          <mxGeometry width="50" height="50" relative="1" as="geometry">
            <mxPoint x="480" y="330" as="sourcePoint" />
            <mxPoint x="530" y="280" as="targetPoint" />
          </mxGeometry>
        </mxCell>
        <mxCell id="s9KCGZ6K6-TVDeoNSBFZ-52" value="&lt;font style=&quot;font-size: 13px;&quot;&gt;1&lt;/font&gt;" style="edgeLabel;html=1;align=center;verticalAlign=middle;resizable=0;points=[];labelBackgroundColor=none;" parent="s9KCGZ6K6-TVDeoNSBFZ-51" vertex="1" connectable="0">
          <mxGeometry x="-0.7128" relative="1" as="geometry">
            <mxPoint x="10" y="6" as="offset" />
          </mxGeometry>
        </mxCell>
        <mxCell id="s9KCGZ6K6-TVDeoNSBFZ-53" value="&lt;font style=&quot;font-size: 13px;&quot;&gt;1...*&lt;/font&gt;" style="edgeLabel;html=1;align=center;verticalAlign=middle;resizable=0;points=[];labelBackgroundColor=none;" parent="s9KCGZ6K6-TVDeoNSBFZ-51" vertex="1" connectable="0">
          <mxGeometry x="0.4513" y="-1" relative="1" as="geometry">
            <mxPoint x="21" y="8" as="offset" />
          </mxGeometry>
        </mxCell>
        <mxCell id="s9KCGZ6K6-TVDeoNSBFZ-54" value="" style="endArrow=none;html=1;rounded=0;" parent="WIyWlLk6GJQsqaUBKTNV-1" source="s9KCGZ6K6-TVDeoNSBFZ-20" target="s9KCGZ6K6-TVDeoNSBFZ-13" edge="1">
          <mxGeometry width="50" height="50" relative="1" as="geometry">
            <mxPoint x="480" y="430" as="sourcePoint" />
            <mxPoint x="530" y="380" as="targetPoint" />
          </mxGeometry>
        </mxCell>
        <mxCell id="s9KCGZ6K6-TVDeoNSBFZ-55" value="&lt;font style=&quot;font-size: 13px;&quot;&gt;1...*&lt;/font&gt;" style="edgeLabel;html=1;align=center;verticalAlign=middle;resizable=0;points=[];labelBackgroundColor=none;" parent="s9KCGZ6K6-TVDeoNSBFZ-54" vertex="1" connectable="0">
          <mxGeometry x="0.6094" y="-2" relative="1" as="geometry">
            <mxPoint x="22" as="offset" />
          </mxGeometry>
        </mxCell>
        <mxCell id="s9KCGZ6K6-TVDeoNSBFZ-56" value="&lt;font style=&quot;font-size: 13px;&quot;&gt;1&lt;/font&gt;" style="edgeLabel;html=1;align=center;verticalAlign=middle;resizable=0;points=[];labelBackgroundColor=none;" parent="s9KCGZ6K6-TVDeoNSBFZ-54" vertex="1" connectable="0">
          <mxGeometry x="0.6094" y="-2" relative="1" as="geometry">
            <mxPoint x="12" y="-42" as="offset" />
          </mxGeometry>
        </mxCell>
        <mxCell id="s9KCGZ6K6-TVDeoNSBFZ-57" value="" style="endArrow=none;html=1;rounded=0;" parent="WIyWlLk6GJQsqaUBKTNV-1" source="s9KCGZ6K6-TVDeoNSBFZ-14" target="s9KCGZ6K6-TVDeoNSBFZ-34" edge="1">
          <mxGeometry width="50" height="50" relative="1" as="geometry">
            <mxPoint x="280" y="460" as="sourcePoint" />
            <mxPoint x="530" y="380" as="targetPoint" />
          </mxGeometry>
        </mxCell>
        <mxCell id="s9KCGZ6K6-TVDeoNSBFZ-58" value="1" style="edgeLabel;html=1;align=center;verticalAlign=middle;resizable=0;points=[];labelBackgroundColor=none;fontSize=13;" parent="s9KCGZ6K6-TVDeoNSBFZ-57" vertex="1" connectable="0">
          <mxGeometry x="0.5086" relative="1" as="geometry">
            <mxPoint x="15" y="-12" as="offset" />
          </mxGeometry>
        </mxCell>
        <mxCell id="s9KCGZ6K6-TVDeoNSBFZ-59" value="1...*" style="edgeLabel;html=1;align=center;verticalAlign=middle;resizable=0;points=[];labelBackgroundColor=none;fontSize=13;" parent="s9KCGZ6K6-TVDeoNSBFZ-57" vertex="1" connectable="0">
          <mxGeometry x="-0.2248" y="2" relative="1" as="geometry">
            <mxPoint x="-19" y="-10" as="offset" />
          </mxGeometry>
        </mxCell>
        <mxCell id="s9KCGZ6K6-TVDeoNSBFZ-60" value="" style="endArrow=none;html=1;rounded=0;" parent="WIyWlLk6GJQsqaUBKTNV-1" source="s9KCGZ6K6-TVDeoNSBFZ-10" target="s9KCGZ6K6-TVDeoNSBFZ-38" edge="1">
          <mxGeometry width="50" height="50" relative="1" as="geometry">
            <mxPoint x="480" y="430" as="sourcePoint" />
            <mxPoint x="530" y="380" as="targetPoint" />
          </mxGeometry>
        </mxCell>
        <mxCell id="s9KCGZ6K6-TVDeoNSBFZ-61" value="&lt;font style=&quot;font-size: 13px;&quot;&gt;1&lt;/font&gt;" style="edgeLabel;html=1;align=center;verticalAlign=middle;resizable=0;points=[];labelBackgroundColor=none;" parent="s9KCGZ6K6-TVDeoNSBFZ-60" vertex="1" connectable="0">
          <mxGeometry x="-0.7519" relative="1" as="geometry">
            <mxPoint x="-60" y="-26" as="offset" />
          </mxGeometry>
        </mxCell>
        <mxCell id="s9KCGZ6K6-TVDeoNSBFZ-62" value="&lt;font style=&quot;font-size: 13px;&quot;&gt;1...*&lt;/font&gt;" style="edgeLabel;html=1;align=center;verticalAlign=middle;resizable=0;points=[];labelBackgroundColor=none;" parent="s9KCGZ6K6-TVDeoNSBFZ-60" vertex="1" connectable="0">
          <mxGeometry x="-0.6502" relative="1" as="geometry">
            <mxPoint y="-11" as="offset" />
          </mxGeometry>
        </mxCell>
        <mxCell id="s9KCGZ6K6-TVDeoNSBFZ-63" value="" style="endArrow=none;html=1;rounded=0;" parent="WIyWlLk6GJQsqaUBKTNV-1" source="s9KCGZ6K6-TVDeoNSBFZ-41" target="s9KCGZ6K6-TVDeoNSBFZ-36" edge="1">
          <mxGeometry width="50" height="50" relative="1" as="geometry">
            <mxPoint x="480" y="530" as="sourcePoint" />
            <mxPoint x="530" y="480" as="targetPoint" />
          </mxGeometry>
        </mxCell>
        <mxCell id="s9KCGZ6K6-TVDeoNSBFZ-64" value="1" style="edgeLabel;html=1;align=center;verticalAlign=middle;resizable=0;points=[];labelBackgroundColor=none;fontSize=13;" parent="s9KCGZ6K6-TVDeoNSBFZ-63" vertex="1" connectable="0">
          <mxGeometry x="0.5617" y="-1" relative="1" as="geometry">
            <mxPoint x="23" y="57" as="offset" />
          </mxGeometry>
        </mxCell>
        <mxCell id="s9KCGZ6K6-TVDeoNSBFZ-65" value="&lt;font style=&quot;font-size: 13px;&quot;&gt;1...*&lt;/font&gt;" style="edgeLabel;html=1;align=center;verticalAlign=middle;resizable=0;points=[];labelBackgroundColor=none;" parent="s9KCGZ6K6-TVDeoNSBFZ-63" vertex="1" connectable="0">
          <mxGeometry x="-0.7187" y="2" relative="1" as="geometry">
            <mxPoint x="-47" y="-63" as="offset" />
          </mxGeometry>
        </mxCell>
        <mxCell id="s9KCGZ6K6-TVDeoNSBFZ-66" value="" style="endArrow=none;html=1;rounded=0;" parent="WIyWlLk6GJQsqaUBKTNV-1" source="s9KCGZ6K6-TVDeoNSBFZ-30" target="s9KCGZ6K6-TVDeoNSBFZ-40" edge="1">
          <mxGeometry width="50" height="50" relative="1" as="geometry">
            <mxPoint x="480" y="630" as="sourcePoint" />
            <mxPoint x="530" y="580" as="targetPoint" />
          </mxGeometry>
        </mxCell>
        <mxCell id="s9KCGZ6K6-TVDeoNSBFZ-67" value="1" style="edgeLabel;html=1;align=center;verticalAlign=middle;resizable=0;points=[];labelBackgroundColor=none;fontSize=13;" parent="s9KCGZ6K6-TVDeoNSBFZ-66" vertex="1" connectable="0">
          <mxGeometry x="0.8207" relative="1" as="geometry">
            <mxPoint x="13" y="-19" as="offset" />
          </mxGeometry>
        </mxCell>
        <mxCell id="s9KCGZ6K6-TVDeoNSBFZ-68" value="&lt;font style=&quot;font-size: 13px;&quot;&gt;1...*&lt;/font&gt;" style="edgeLabel;html=1;align=center;verticalAlign=middle;resizable=0;points=[];labelBackgroundColor=none;" parent="s9KCGZ6K6-TVDeoNSBFZ-66" vertex="1" connectable="0">
          <mxGeometry x="-0.838" y="2" relative="1" as="geometry">
            <mxPoint x="1" y="22" as="offset" />
          </mxGeometry>
        </mxCell>
        <mxCell id="s9KCGZ6K6-TVDeoNSBFZ-69" value="" style="endArrow=none;html=1;rounded=0;" parent="WIyWlLk6GJQsqaUBKTNV-1" source="s9KCGZ6K6-TVDeoNSBFZ-36" target="s9KCGZ6K6-TVDeoNSBFZ-6" edge="1">
          <mxGeometry width="50" height="50" relative="1" as="geometry">
            <mxPoint x="480" y="530" as="sourcePoint" />
            <mxPoint x="530" y="480" as="targetPoint" />
          </mxGeometry>
        </mxCell>
        <mxCell id="s9KCGZ6K6-TVDeoNSBFZ-70" value="&lt;font style=&quot;font-size: 13px;&quot;&gt;1&lt;/font&gt;" style="edgeLabel;html=1;align=center;verticalAlign=middle;resizable=0;points=[];labelBackgroundColor=none;fontSize=13;" parent="s9KCGZ6K6-TVDeoNSBFZ-69" vertex="1" connectable="0">
          <mxGeometry x="0.8845" y="1" relative="1" as="geometry">
            <mxPoint x="-226" y="-137" as="offset" />
          </mxGeometry>
        </mxCell>
        <mxCell id="s9KCGZ6K6-TVDeoNSBFZ-71" value="&lt;font style=&quot;font-size: 13px;&quot;&gt;1...*&lt;/font&gt;" style="edgeLabel;html=1;align=center;verticalAlign=middle;resizable=0;points=[];labelBackgroundColor=none;" parent="s9KCGZ6K6-TVDeoNSBFZ-69" vertex="1" connectable="0">
          <mxGeometry x="-0.9177" relative="1" as="geometry">
            <mxPoint x="220" y="104" as="offset" />
          </mxGeometry>
        </mxCell>
        <mxCell id="s9KCGZ6K6-TVDeoNSBFZ-72" value="" style="endArrow=none;html=1;rounded=0;" parent="WIyWlLk6GJQsqaUBKTNV-1" source="s9KCGZ6K6-TVDeoNSBFZ-37" target="s9KCGZ6K6-TVDeoNSBFZ-28" edge="1">
          <mxGeometry width="50" height="50" relative="1" as="geometry">
            <mxPoint x="480" y="330" as="sourcePoint" />
            <mxPoint x="530" y="280" as="targetPoint" />
          </mxGeometry>
        </mxCell>
        <mxCell id="s9KCGZ6K6-TVDeoNSBFZ-73" value="&lt;font style=&quot;font-size: 13px;&quot;&gt;1...*&lt;/font&gt;" style="edgeLabel;html=1;align=center;verticalAlign=middle;resizable=0;points=[];labelBackgroundColor=none;" parent="s9KCGZ6K6-TVDeoNSBFZ-72" vertex="1" connectable="0">
          <mxGeometry x="-0.7323" y="-2" relative="1" as="geometry">
            <mxPoint y="-19" as="offset" />
          </mxGeometry>
        </mxCell>
        <mxCell id="s9KCGZ6K6-TVDeoNSBFZ-74" value="1" style="edgeLabel;html=1;align=center;verticalAlign=middle;resizable=0;points=[];fontSize=13;labelBackgroundColor=none;" parent="s9KCGZ6K6-TVDeoNSBFZ-72" vertex="1" connectable="0">
          <mxGeometry x="0.7524" y="-2" relative="1" as="geometry">
            <mxPoint x="-10" y="-6" as="offset" />
          </mxGeometry>
        </mxCell>
        <mxCell id="s9KCGZ6K6-TVDeoNSBFZ-75" value="" style="endArrow=none;html=1;rounded=0;" parent="WIyWlLk6GJQsqaUBKTNV-1" source="s9KCGZ6K6-TVDeoNSBFZ-41" target="s9KCGZ6K6-TVDeoNSBFZ-40" edge="1">
          <mxGeometry width="50" height="50" relative="1" as="geometry">
            <mxPoint x="440" y="600" as="sourcePoint" />
            <mxPoint x="490" y="550" as="targetPoint" />
          </mxGeometry>
        </mxCell>
        <mxCell id="s9KCGZ6K6-TVDeoNSBFZ-76" value="&lt;font style=&quot;font-size: 13px;&quot;&gt;1&lt;/font&gt;" style="edgeLabel;html=1;align=center;verticalAlign=middle;resizable=0;points=[];labelBackgroundColor=none;" parent="s9KCGZ6K6-TVDeoNSBFZ-75" vertex="1" connectable="0">
          <mxGeometry x="0.7641" y="-1" relative="1" as="geometry">
            <mxPoint x="-43" y="77" as="offset" />
          </mxGeometry>
        </mxCell>
        <mxCell id="s9KCGZ6K6-TVDeoNSBFZ-77" value="&lt;font style=&quot;font-size: 13px;&quot;&gt;1...*&lt;/font&gt;" style="edgeLabel;html=1;align=center;verticalAlign=middle;resizable=0;points=[];labelBackgroundColor=none;" parent="s9KCGZ6K6-TVDeoNSBFZ-75" vertex="1" connectable="0">
          <mxGeometry x="-0.789" y="-2" relative="1" as="geometry">
            <mxPoint x="4" y="-85" as="offset" />
          </mxGeometry>
        </mxCell>
      </root>
    </mxGraphModel>
  </diagram>
</mxfile>
